# xmcd
#
# Track frame offsets: 
#        150
#        8708
#        29951
#        52244
#        88339
#        106600
#        148145
#        160531
#        173806
#        179104
#        197560
#        210200
#        228903
#
# Disc length: 3325 seconds
#
# Revision: 1
# Processed by: cddbd v1.5.2PL0 Copyright (c) Steve Scherf et al.
# Submitted via: ExactAudioCopy v0.99pb3
#
DISCID=b00cfb0d
DTITLE=Stevie Ray Vaughan And Double Trouble - Couldn't Stand The Weat
DTITLE=her (Remastered)
DYEAR=1984
DGENRE=Blues
TTITLE0=Scuttle Buttin'
TTITLE1=Couldn't Stand The Weather
TTITLE2=The Things (That) I Used To Do
TTITLE3=Voodoo Chile (Slight Return)
TTITLE4=Cold Shot
TTITLE5=Tin Pan Alley
TTITLE6=Honey Bee
TTITLE7=Stang's Swang
TTITLE8=SRV Speaks
TTITLE9=Hide Away
TTITLE10=Look At Little Sister
TTITLE11=Give Me Back My Wig
TTITLE12=Come On (Part III)
EXTD=
EXTT0=
EXTT1=
EXTT2=
EXTT3=
EXTT4=
EXTT5=
EXTT6=
EXTT7=
EXTT8=
EXTT9=
EXTT10=
EXTT11=
EXTT12=
PLAYORDER=
